<svg width="100" height="100" viewBox="0 0 100 100" fill="none" xmlns="http://www.w3.org/2000/svg">
<circle cx="50" cy="50" r="50" fill="white"/>
<path d="M40.517 47.9091H36.5114C36.483 47.5777 36.4072 47.277 36.2841 47.0071C36.1657 46.7372 36 46.5052 35.7869 46.3111C35.5786 46.1122 35.3253 45.9607 35.027 45.8565C34.7287 45.7476 34.3902 45.6932 34.0114 45.6932C33.3485 45.6932 32.7874 45.8542 32.3281 46.1761C31.8736 46.4981 31.5279 46.9598 31.2912 47.5611C31.0592 48.1624 30.9432 48.8845 30.9432 49.7273C30.9432 50.6174 31.0616 51.3632 31.2983 51.9645C31.5398 52.5611 31.8878 53.0109 32.3423 53.3139C32.7969 53.6122 33.3438 53.7614 33.983 53.7614C34.3475 53.7614 34.6742 53.7164 34.9631 53.6264C35.2519 53.5317 35.5028 53.3968 35.7159 53.2216C35.929 53.0464 36.1018 52.8357 36.2344 52.5895C36.3717 52.3385 36.464 52.0568 36.5114 51.7443L40.517 51.7727C40.4697 52.3883 40.2969 53.0156 39.9986 53.6548C39.7003 54.2893 39.2765 54.8764 38.7273 55.4162C38.1828 55.9512 37.508 56.3821 36.7031 56.7088C35.8982 57.0355 34.9631 57.1989 33.8977 57.1989C32.5625 57.1989 31.3646 56.9124 30.304 56.3395C29.2481 55.7666 28.4124 54.9238 27.7969 53.8111C27.1861 52.6984 26.8807 51.3371 26.8807 49.7273C26.8807 48.108 27.1932 46.7443 27.8182 45.6364C28.4432 44.5237 29.286 43.6832 30.3466 43.1151C31.4072 42.5421 32.5909 42.2557 33.8977 42.2557C34.8163 42.2557 35.6615 42.3812 36.4332 42.6321C37.205 42.883 37.8821 43.25 38.4645 43.733C39.0469 44.2112 39.5156 44.8007 39.8707 45.5014C40.2259 46.2022 40.4413 47.0047 40.517 47.9091ZM50.1495 47C50.1116 46.5265 49.9341 46.1572 49.6168 45.892C49.3043 45.6269 48.8285 45.4943 48.1893 45.4943C47.7821 45.4943 47.4483 45.544 47.1879 45.6435C46.9322 45.7382 46.7428 45.8684 46.6197 46.0341C46.4966 46.1998 46.4326 46.3892 46.4279 46.6023C46.4184 46.7775 46.4492 46.9361 46.5202 47.0781C46.596 47.2154 46.7144 47.3409 46.8754 47.4545C47.0363 47.5634 47.2423 47.6629 47.4933 47.7528C47.7442 47.8428 48.0425 47.9233 48.3881 47.9943L49.5813 48.25C50.3862 48.4205 51.0752 48.6454 51.6481 48.9247C52.221 49.2041 52.6897 49.5331 53.0543 49.9119C53.4189 50.286 53.6864 50.7074 53.8569 51.1761C54.0321 51.6449 54.122 52.1562 54.1268 52.7102C54.122 53.6667 53.8829 54.4763 53.4094 55.1392C52.936 55.8021 52.2589 56.3063 51.3782 56.652C50.5022 56.9976 49.4487 57.1705 48.2177 57.1705C46.9535 57.1705 45.8503 56.9834 44.908 56.6094C43.9705 56.2353 43.2414 55.66 42.7205 54.8835C42.2044 54.1023 41.944 53.1032 41.9393 51.8864H45.6893C45.7129 52.3314 45.8242 52.7055 46.0231 53.0085C46.2219 53.3116 46.5013 53.5412 46.8612 53.6974C47.2257 53.8537 47.659 53.9318 48.1609 53.9318C48.5823 53.9318 48.935 53.8797 49.2191 53.7756C49.5032 53.6714 49.7186 53.527 49.8654 53.3423C50.0122 53.1577 50.0879 52.947 50.0927 52.7102C50.0879 52.4877 50.0146 52.2936 49.8725 52.1278C49.7352 51.9574 49.5079 51.8059 49.1907 51.6733C48.8735 51.536 48.445 51.4081 47.9052 51.2898L46.4563 50.9773C45.1684 50.6979 44.1528 50.2315 43.4094 49.5781C42.6708 48.92 42.3039 48.0227 42.3086 46.8864C42.3039 45.9631 42.5501 45.1558 43.0472 44.4645C43.5491 43.7685 44.2428 43.2263 45.1282 42.8381C46.0183 42.4498 47.0387 42.2557 48.1893 42.2557C49.3635 42.2557 50.3791 42.4522 51.2362 42.8452C52.0932 43.2382 52.7537 43.7921 53.2177 44.5071C53.6864 45.2173 53.9232 46.0483 53.9279 47H50.1495ZM55.6289 42.4545H60.5437L63.9244 50.6932H64.0948L67.4755 42.4545H72.3903V57H68.5266V48.5909H68.413L65.1744 56.8864H62.8448L59.6062 48.5341H59.4925V57H55.6289V42.4545Z" fill="#2563EB"/>
</svg>
